<svg width="13" height="12" viewBox="0 0 13 12" fill="none" xmlns="http://www.w3.org/2000/svg">
<path d="M6.48973 3.45431C4.82864 3.45431 3.48879 4.7107 3.48879 6.26832C3.48879 7.82595 4.82864 9.08233 6.48973 9.08233C8.15082 9.08233 9.49067 7.82595 9.49067 6.26832C9.49067 4.7107 8.15082 3.45431 6.48973 3.45431ZM6.48973 8.0978C5.41629 8.0978 4.53873 7.27735 4.53873 6.26832C4.53873 5.2593 5.41368 4.43885 6.48973 4.43885C7.56578 4.43885 8.44073 5.2593 8.44073 6.26832C8.44073 7.27735 7.56317 8.0978 6.48973 8.0978ZM10.3134 3.33921C10.3134 3.70412 9.99997 3.99556 9.61342 3.99556C9.22427 3.99556 8.91346 3.70167 8.91346 3.33921C8.91346 2.97674 9.22688 2.68285 9.61342 2.68285C9.99997 2.68285 10.3134 2.97674 10.3134 3.33921ZM12.3009 4.00536C12.2565 3.12614 12.0424 2.34732 11.3555 1.70566C10.6712 1.064 9.84065 0.863174 8.90302 0.819091C7.93666 0.76766 5.04019 0.76766 4.07383 0.819091C3.13881 0.860725 2.30827 1.06155 1.62137 1.70321C0.934468 2.34488 0.722913 3.12369 0.675901 4.00291C0.621054 4.90908 0.621054 7.62512 0.675901 8.53128C0.720302 9.41051 0.934468 10.1893 1.62137 10.831C2.30827 11.4726 3.1362 11.6735 4.07383 11.7176C5.04019 11.769 7.93666 11.769 8.90302 11.7176C9.84065 11.6759 10.6712 11.4751 11.3555 10.831C12.0398 10.1893 12.2539 9.41051 12.3009 8.53128C12.3558 7.62512 12.3558 4.91153 12.3009 4.00536ZM11.0525 9.50357C10.8488 9.9836 10.4544 10.3534 9.9399 10.5469C9.16942 10.8334 7.34117 10.7673 6.48973 10.7673C5.63829 10.7673 3.80743 10.831 3.03956 10.5469C2.52766 10.3559 2.13328 9.98605 1.92695 9.50357C1.62137 8.78109 1.69188 7.06673 1.69188 6.26832C1.69188 5.46992 1.62398 3.7531 1.92695 3.03307C2.13066 2.55305 2.52504 2.18324 3.03956 1.98976C3.81004 1.70321 5.63829 1.76934 6.48973 1.76934C7.34117 1.76934 9.17203 1.70566 9.9399 1.98976C10.4518 2.18079 10.8462 2.5506 11.0525 3.03307C11.3581 3.75555 11.2876 5.46992 11.2876 6.26832C11.2876 7.06673 11.3581 8.78354 11.0525 9.50357Z" fill="white"/>
</svg>
