<svg width="10" height="14" viewBox="0 0 10 14" fill="none" xmlns="http://www.w3.org/2000/svg">
<path d="M8.41958 9.07003C7.6384 9.49263 6.56355 9.66022 5.85364 9.72336L6.44951 10.2237L8.62486 12.0768C9.4203 12.7714 8.12592 13.8571 7.32193 13.1867C6.77738 12.7156 5.97909 12.0355 5.14658 11.3263L2.97123 13.1843C2.16723 13.8522 0.872859 12.7569 1.67685 12.0744C2.22996 11.6032 3.0197 10.9232 3.8522 10.2213L4.43952 9.72094C3.73816 9.65779 2.64621 9.49992 1.85647 9.0676C0.927029 8.55757 0.519329 8.25883 0.878561 7.63465C1.08954 7.28005 1.6683 6.98132 2.43523 7.49621C2.43523 7.49621 3.47016 8.19811 5.14088 8.19811C6.81159 8.19811 7.84652 7.49621 7.84652 7.49621C8.61345 6.98375 9.18937 7.28005 9.40319 7.63465C9.75672 8.25883 9.34902 8.55757 8.41958 9.07003ZM1.44022 4.10812C1.44022 2.36671 3.10238 0.958039 5.13803 0.958039C7.17367 0.958039 8.83584 2.36671 8.83584 4.10812C8.83584 5.84224 7.17367 7.25091 5.13803 7.25091C3.10238 7.25091 1.44022 5.84224 1.44022 4.10812ZM3.32191 4.10812C3.32191 4.9606 4.13731 5.65522 5.13803 5.65522C6.13874 5.65522 6.95414 4.9606 6.95414 4.10812C6.95414 3.24834 6.13874 2.55372 5.13803 2.55372C4.13731 2.55372 3.32191 3.24834 3.32191 4.10812Z" fill="white"/>
</svg>
