<svg width="12" height="13" viewBox="0 0 12 13" fill="none" xmlns="http://www.w3.org/2000/svg">
<path d="M10.472 1.26008C10.1647 0.975863 8.92111 0.0697748 6.14845 0.0576289C6.14845 0.0576289 2.87981 -0.139136 1.28783 1.3281C0.402316 2.21718 0.0902096 3.52166 0.0563376 5.13707C0.0224656 6.75248 -0.0186645 9.77925 2.88707 10.6003H2.88949L2.88707 11.8538C2.88707 11.8538 2.86771 12.3615 3.20159 12.4635C3.60322 12.5898 3.84032 12.2036 4.22501 11.7882C4.4355 11.5599 4.72583 11.2246 4.946 10.9696C6.93476 11.1372 8.46142 10.7534 8.63562 10.6975C9.03725 10.5663 11.3091 10.2748 11.6768 7.24804C12.0591 4.12409 11.493 2.15159 10.472 1.26008ZM10.8083 7.01969C10.4962 9.54605 8.65498 9.70638 8.31626 9.81569C8.17109 9.86185 6.82831 10.1971 5.14197 10.0878C5.14197 10.0878 3.88387 11.6109 3.49192 12.0068C3.36369 12.1356 3.22337 12.1234 3.22579 11.8684C3.22579 11.7007 3.23546 9.78654 3.23546 9.78654C3.23304 9.78654 3.23304 9.78654 3.23546 9.78654C0.772487 9.10151 0.917653 6.52414 0.944267 5.17594C0.970881 3.82773 1.22492 2.72245 1.97494 1.97912C3.32256 0.752378 6.09764 0.934567 6.09764 0.934567C8.44207 0.944284 9.56468 1.65361 9.82598 1.89167C10.6897 2.635 11.13 4.41317 10.8083 7.01969ZM7.44526 5.05691C7.45494 5.26582 7.14284 5.28039 7.13316 5.07148C7.10654 4.53706 6.85734 4.27713 6.34443 4.24798C6.13635 4.23584 6.15571 3.92247 6.36136 3.93462C7.03638 3.97106 7.41139 4.35973 7.44526 5.05691ZM7.93641 5.3314C7.9606 4.30143 7.31945 3.49494 6.10248 3.40505C5.89683 3.39048 5.91861 3.07711 6.12426 3.09169C7.52752 3.19371 8.27513 4.16296 8.24851 5.33869C8.24609 5.5476 7.93157 5.53789 7.93641 5.3314ZM9.07354 5.65692C9.07596 5.86583 8.76143 5.86826 8.76143 5.65934C8.74691 3.67955 7.43317 2.60099 5.83876 2.58885C5.63311 2.58642 5.63311 2.27548 5.83876 2.27548C7.62188 2.28763 9.0566 3.52409 9.07354 5.65692ZM8.80014 8.03995V8.04481C8.53885 8.50636 8.05012 9.01649 7.54688 8.85373L7.54204 8.84644C7.03154 8.70312 5.82909 8.08125 5.06939 7.47395C4.67744 7.16301 4.31937 6.79621 4.04355 6.44397C3.79435 6.13061 3.54273 5.75894 3.29837 5.31197C2.78303 4.37673 2.66932 3.95891 2.66932 3.95891C2.50722 3.45364 3.01288 2.96294 3.47499 2.70059H3.47982C3.70241 2.58399 3.91532 2.62285 4.05807 2.79533C4.05807 2.79533 4.35808 3.15485 4.48631 3.33218C4.60728 3.49736 4.76938 3.76215 4.85406 3.91033C5.00164 4.17511 4.90971 4.44475 4.76454 4.55649L4.47421 4.78969C4.32662 4.90872 4.34598 5.12978 4.34598 5.12978C4.34598 5.12978 4.77664 6.76463 6.38556 7.17759C6.38556 7.17759 6.60572 7.19702 6.72428 7.04884L6.95654 6.75734C7.06783 6.61159 7.33639 6.51928 7.60011 6.66746C7.95576 6.86908 8.4082 7.18245 8.70821 7.46666C8.87756 7.60513 8.91628 7.81647 8.80014 8.03995Z" fill="white"/>
</svg>
