<svg width="13" height="9" viewBox="0 0 13 9" fill="none" xmlns="http://www.w3.org/2000/svg">
<path d="M12.3997 1.26987C12.4851 0.945934 12.3997 0.70752 11.9886 0.70752H10.6285C10.2822 0.70752 10.1228 0.912245 10.0374 1.14029C10.0374 1.14029 9.34462 3.03465 8.36553 4.26301C8.04917 4.61804 7.90369 4.73206 7.73051 4.73206C7.64507 4.73206 7.51344 4.61804 7.51344 4.2941V1.26987C7.51344 0.881147 7.41646 0.70752 7.13012 0.70752H4.99182C4.77475 0.70752 4.64544 0.888922 4.64544 1.05737C4.64544 1.42535 5.13499 1.51087 5.18579 2.54746V4.79685C5.18579 5.28923 5.10728 5.37993 4.93409 5.37993C4.47225 5.37993 3.34999 3.47779 2.68495 1.30096C2.55101 0.878556 2.41939 0.70752 2.0707 0.70752H0.710595C0.322653 0.70752 0.244141 0.912245 0.244141 1.14029C0.244141 1.54456 0.705977 3.55295 2.39399 6.2066C3.51856 8.01804 5.10266 9.0002 6.54359 9.0002C7.40953 9.0002 7.51575 8.78252 7.51575 8.40676C7.51575 6.67566 7.43724 6.5124 7.87137 6.5124C8.07227 6.5124 8.41864 6.62642 9.22686 7.49974C10.1505 8.53633 10.3029 9.0002 10.8202 9.0002H12.1803C12.5682 9.0002 12.7645 8.78252 12.6514 8.35234C12.3927 7.44791 10.6447 5.58724 10.5662 5.46285C10.3653 5.17261 10.423 5.04304 10.5662 4.78389C10.5685 4.7813 12.2288 2.15874 12.3997 1.26987Z" fill="white"/>
</svg>
