<svg width="14" height="12" viewBox="0 0 14 12" fill="none" xmlns="http://www.w3.org/2000/svg">
<path d="M11.2107 1.75005C10.0473 0.652487 8.49801 0.0488281 6.8515 0.0488281C3.45298 0.0488281 0.68752 2.65162 0.68752 5.85022C0.68752 6.872 0.97073 7.87026 1.50938 8.75092L0.634766 11.7561L3.90279 10.9487C4.80239 11.4112 5.81584 11.6542 6.84872 11.6542H6.8515C10.2472 11.6542 13.0738 9.05144 13.0738 5.85284C13.0738 4.30318 12.3741 2.84761 11.2107 1.75005ZM6.8515 10.6769C5.92968 10.6769 5.0273 10.4443 4.24153 10.0053L4.0555 9.90074L2.11745 10.379L2.63389 8.59935L2.51173 8.41642C1.99806 7.64813 1.72873 6.76224 1.72873 5.85022C1.72873 3.19256 4.02773 1.02879 6.85428 1.02879C8.22313 1.02879 9.50868 1.53054 10.4749 2.44256C11.4412 3.35458 12.0354 4.56451 12.0326 5.85284C12.0326 8.51311 9.67527 10.6769 6.8515 10.6769ZM9.66139 7.06538C9.50868 6.99221 8.75067 6.64203 8.60907 6.595C8.46746 6.54534 8.36473 6.52182 8.262 6.66817C8.15926 6.81451 7.86495 7.13855 7.77332 7.23785C7.68447 7.33454 7.59284 7.34761 7.44013 7.27444C6.53497 6.84848 5.94079 6.51399 5.34382 5.5497C5.18556 5.2936 5.50209 5.31189 5.7964 4.75789C5.84638 4.6612 5.82139 4.57757 5.78252 4.5044C5.74365 4.43123 5.43545 3.71782 5.30773 3.42775C5.18278 3.14552 5.05506 3.18472 4.96066 3.17949C4.87181 3.17426 4.76907 3.17426 4.66634 3.17426C4.56361 3.17426 4.39701 3.21085 4.25541 3.35458C4.1138 3.50092 3.71676 3.85109 3.71676 4.56451C3.71676 5.27792 4.26929 5.96782 4.34426 6.06451C4.422 6.1612 5.4299 7.62461 6.97645 8.2544C7.9538 8.65162 8.33696 8.68559 8.82564 8.61764C9.12273 8.57583 9.73635 8.26747 9.86408 7.92775C9.9918 7.58803 9.9918 7.29796 9.95293 7.23785C9.91683 7.17252 9.8141 7.13594 9.66139 7.06538Z" fill="white"/>
</svg>
