<svg width="13" height="12" viewBox="0 0 13 12" fill="none" xmlns="http://www.w3.org/2000/svg">
<path d="M12.2679 2.38334C12.1332 1.75243 11.7365 1.25555 11.2328 1.08693C10.3198 0.780518 6.65883 0.780518 6.65883 0.780518C6.65883 0.780518 2.99787 0.780518 2.08486 1.08693C1.58116 1.25558 1.18446 1.75243 1.04981 2.38334C0.805176 3.5269 0.805176 5.91282 0.805176 5.91282C0.805176 5.91282 0.805176 8.29874 1.04981 9.4423C1.18446 10.0732 1.58116 10.5494 2.08486 10.718C2.99787 11.0244 6.65883 11.0244 6.65883 11.0244C6.65883 11.0244 10.3198 11.0244 11.2328 10.718C11.7365 10.5494 12.1332 10.0732 12.2679 9.4423C12.5125 8.29874 12.5125 5.91282 12.5125 5.91282C12.5125 5.91282 12.5125 3.5269 12.2679 2.38334ZM5.46149 8.07906V3.74658L8.52134 5.91287L5.46149 8.07906Z" fill="white"/>
</svg>
