<svg width="8" height="7" viewBox="0 0 8 7" fill="none" xmlns="http://www.w3.org/2000/svg">
<path d="M3.91269 3.08777L0.995833 0.17091C0.767954 -0.0569699 0.398789 -0.0569699 0.17091 0.17091C-0.0569699 0.398789 -0.0569699 0.767954 0.17091 0.995833L2.67667 3.49977L0.171821 6.00462C-0.0560583 6.2325 -0.0560583 6.60167 0.171821 6.82955C0.285396 6.94349 0.434521 7 0.583827 7C0.733134 7 0.88244 6.94303 0.996198 6.82909L3.91305 3.91223C4.14057 3.6839 4.14057 3.31565 3.91269 3.08777ZM7.41292 3.08777L4.49606 0.17091C4.26818 -0.0569699 3.89902 -0.0569699 3.67114 0.17091C3.44326 0.398789 3.44326 0.767954 3.67114 0.995833L6.1769 3.49977L3.67205 6.00462C3.44417 6.2325 3.44417 6.60167 3.67205 6.82955C3.78508 6.94349 3.93457 7 4.08405 7C4.23354 7 4.38267 6.94303 4.49643 6.82909L7.41328 3.91223C7.6408 3.6839 7.6408 3.31565 7.41292 3.08777Z" fill="#7099B9"/>
</svg>
