<svg width="18" height="18" viewBox="0 0 18 18" fill="none" xmlns="http://www.w3.org/2000/svg">
<path d="M1.40958 0.241835C1.08713 -0.0806117 0.564282 -0.0806117 0.241835 0.241835C-0.0806117 0.564282 -0.0806117 1.08713 0.241835 1.40958L1.40958 0.241835ZM16.5904 17.7582C16.9129 18.0806 17.4357 18.0806 17.7582 17.7582C18.0806 17.4357 18.0806 16.9129 17.7582 16.5904L16.5904 17.7582ZM0.241835 16.5904C-0.0806117 16.9129 -0.0806117 17.4357 0.241835 17.7582C0.564282 18.0806 1.08713 18.0806 1.40958 17.7582L0.241835 16.5904ZM17.7582 1.40958C18.0806 1.08713 18.0806 0.564282 17.7582 0.241835C17.4357 -0.0806117 16.9129 -0.0806117 16.5904 0.241835L17.7582 1.40958ZM0.241835 1.40958L16.5904 17.7582L17.7582 16.5904L1.40958 0.241835L0.241835 1.40958ZM1.40958 17.7582L17.7582 1.40958L16.5904 0.241835L0.241835 16.5904L1.40958 17.7582Z" fill="white"/>
</svg>
