<svg width="14" height="18" viewBox="0 0 14 18" fill="none" xmlns="http://www.w3.org/2000/svg">
<g clip-path="url(#clip0_52_1245)">
<path d="M13.0801 8.24463C12.9505 8.24463 12.8262 8.30011 12.7346 8.39888C12.643 8.49765 12.5915 8.6316 12.5915 8.77128V12.9845C12.5915 13.1241 12.54 13.2581 12.4484 13.3569C12.3567 13.4556 12.2325 13.5111 12.1029 13.5111H2.33059C2.201 13.5111 2.07672 13.4556 1.98509 13.3569C1.89345 13.2581 1.84197 13.1241 1.84197 12.9845V8.77128C1.84197 8.6316 1.7905 8.49765 1.69886 8.39888C1.60723 8.30011 1.48295 8.24463 1.35336 8.24463C1.22377 8.24463 1.09949 8.30011 1.00786 8.39888C0.916225 8.49765 0.864746 8.6316 0.864746 8.77128V12.9845C0.865088 13.4033 1.01975 13.8049 1.29473 14.101C1.56936 14.3973 1.94195 14.564 2.33059 14.5644H12.1029C12.4915 14.564 12.8641 14.3973 13.1387 14.101C13.4137 13.8049 13.5684 13.4033 13.5687 12.9845V8.77128C13.5687 8.6316 13.5172 8.49765 13.4256 8.39888C13.334 8.30011 13.2097 8.24463 13.0801 8.24463Z" fill="white"/>
<path d="M6.92345 11.2989C7.00803 11.3673 7.1109 11.4042 7.21662 11.4042C7.32234 11.4042 7.42521 11.3673 7.50979 11.2989L13.2803 6.63282C13.3703 6.55965 13.4341 6.45518 13.4608 6.33712C13.4875 6.21905 13.4756 6.09466 13.4269 5.98504C13.3541 5.823 13.2567 5.67525 13.1386 5.54792C12.864 5.25154 12.4914 5.08484 12.1028 5.08447H2.33048C1.94185 5.08484 1.56926 5.25154 1.29462 5.54792C1.17655 5.67525 1.07911 5.823 1.00634 5.98504C0.957683 6.09466 0.945696 6.21905 0.972412 6.33712C0.999128 6.45518 1.0629 6.55965 1.15292 6.63282L6.92345 11.2989ZM2.33048 6.13777H12.1028C12.1481 6.13007 12.1942 6.13007 12.2396 6.13777L7.21662 10.2193L2.19367 6.13777C2.239 6.13007 2.28516 6.13007 2.33048 6.13777V6.13777Z" fill="white"/>
</g>
<defs>
<clipPath id="clip0_52_1245">
<rect width="12.7402" height="17.4769" fill="white" transform="translate(0.84668 0.461914)"/>
</clipPath>
</defs>
</svg>
