<svg width="21" height="21" viewBox="0 0 21 21" fill="none" xmlns="http://www.w3.org/2000/svg">
<path d="M10.5 0.164062C4.80703 0.164062 0.164062 4.80703 0.164062 10.5C0.164062 16.193 4.80703 20.8359 10.5 20.8359C16.193 20.8359 20.8359 16.193 20.8359 10.5C20.8359 4.80703 16.193 0.164062 10.5 0.164062ZM10.5 19.5234C5.52891 19.5234 1.47656 15.4711 1.47656 10.5C1.47656 5.52891 5.52891 1.47656 10.5 1.47656C15.4711 1.47656 19.5234 5.52891 19.5234 10.5C19.5234 15.4711 15.4711 19.5234 10.5 19.5234Z" fill="#BEC2C5"/>
<path d="M11.1562 8.94141H9.84375V15.5039H11.1562V8.94141Z" fill="#BEC2C5"/>
<path d="M11.1562 5.82422H9.84375V7.13672H11.1562V5.82422Z" fill="#BEC2C5"/>
</svg>
