<svg width="21" height="22" viewBox="0 0 21 22" fill="none" xmlns="http://www.w3.org/2000/svg">
<path d="M10.5001 6.08333C12.2312 6.08333 13.7501 7.50142 13.7501 9.11775C13.7501 10.33 13.177 11.0071 12.3098 12.0325C11.7259 12.7225 11.0623 13.5069 10.5001 14.5767C9.93783 13.5063 9.27429 12.7225 8.69037 12.0325C7.82316 11.0071 7.25008 10.33 7.25008 9.11775C7.25008 7.50142 8.76891 6.08333 10.5001 6.08333ZM10.5001 5C8.22616 5 6.16675 6.84329 6.16675 9.11775C6.16675 12.4994 9.62096 12.8569 10.5001 18C11.3792 12.8569 14.8334 12.4994 14.8334 9.11775C14.8334 6.84329 12.7745 5 10.5001 5ZM10.5001 10.9583C9.60254 10.9583 8.87508 10.2309 8.87508 9.33333C8.87508 8.43579 9.60254 7.70833 10.5001 7.70833C11.3976 7.70833 12.1251 8.43579 12.1251 9.33333C12.1251 10.2309 11.3976 10.9583 10.5001 10.9583Z" fill="#BEC2C5"/>
<path d="M7.84959 0.336569C5.98883 0.821304 4.62844 1.63441 3.11169 3.15116C0.969471 5.26211 0 7.57633 0 10.516C0 13.2837 0.906925 15.6605 2.72077 17.6463C6.45793 21.7275 12.5406 22.2591 16.9814 18.8973C18.6389 17.6307 19.8898 15.8325 20.5934 13.7059C20.9375 12.6426 21 12.1891 21 10.5786C21 8.96799 20.9375 8.51453 20.5934 7.45124C18.8109 2.0566 13.2286 -1.07073 7.84959 0.336569ZM12.7282 1.43113C17.4192 2.63515 20.4214 6.95086 19.8429 11.6888C19.2487 16.411 15.3239 19.898 10.5547 19.9136C8.92852 19.9293 7.8965 19.6947 6.33284 18.9442C4.76917 18.178 3.67461 17.2241 2.67386 15.723C1.72003 14.3001 1.25093 12.8928 1.14147 11.0946C1.03202 9.32763 1.26657 8.09234 2.06404 6.43485C2.56441 5.37156 2.93969 4.85555 3.90916 3.91736C6.33284 1.50932 9.52271 0.60239 12.7282 1.43113Z" fill="#BEC2C5"/>
</svg>
