<svg width="19" height="15" viewBox="0 0 19 15" fill="none" xmlns="http://www.w3.org/2000/svg">
<path d="M18.2376 0H0.675466C0.496321 0 0.324514 0.0790178 0.197839 0.21967C0.0711649 0.360322 0 0.551088 0 0.75C0 0.948912 0.0711649 1.13968 0.197839 1.28033C0.324514 1.42098 0.496321 1.5 0.675466 1.5H18.2376C18.4167 1.5 18.5885 1.42098 18.7152 1.28033C18.8419 1.13968 18.913 0.948912 18.913 0.75C18.913 0.551088 18.8419 0.360322 18.7152 0.21967C18.5885 0.0790178 18.4167 0 18.2376 0Z" fill="white"/>
<path d="M0.675466 8.25H9.45652C9.63567 8.25 9.80748 8.17098 9.93415 8.03033C10.0608 7.88968 10.132 7.69891 10.132 7.5C10.132 7.30109 10.0608 7.11032 9.93415 6.96967C9.80748 6.82902 9.63567 6.75 9.45652 6.75H0.675466C0.496321 6.75 0.324514 6.82902 0.197839 6.96967C0.0711649 7.11032 0 7.30109 0 7.5C0 7.69891 0.0711649 7.88968 0.197839 8.03033C0.324514 8.17098 0.496321 8.25 0.675466 8.25Z" fill="white"/>
<path d="M15.5357 13.5H0.675466C0.496321 13.5 0.324514 13.579 0.197839 13.7197C0.0711649 13.8603 0 14.0511 0 14.25C0 14.4489 0.0711649 14.6397 0.197839 14.7803C0.324514 14.921 0.496321 15 0.675466 15H15.5357C15.7149 15 15.8867 14.921 16.0133 14.7803C16.14 14.6397 16.2112 14.4489 16.2112 14.25C16.2112 14.0511 16.14 13.8603 16.0133 13.7197C15.8867 13.579 15.7149 13.5 15.5357 13.5Z" fill="white"/>
</svg>
