<svg width="15" height="14" viewBox="0 0 15 14" fill="none" xmlns="http://www.w3.org/2000/svg">
<path d="M12.254 2.22086C10.9151 0.9577 9.13213 0.262962 7.23731 0.262962C3.32625 0.262962 0.143719 3.25845 0.143719 6.93966C0.143719 8.1156 0.469641 9.26448 1.08953 10.278L0.0830078 13.7367L3.84389 12.8073C4.87917 13.3397 6.04546 13.6194 7.23412 13.6194H7.23731C11.1452 13.6194 14.398 10.6239 14.398 6.94267C14.398 5.15921 13.5928 3.48402 12.254 2.22086ZM7.23731 12.4946C6.17647 12.4946 5.13799 12.2269 4.23372 11.7216L4.01963 11.6013L1.7893 12.1517L2.38363 10.1036L2.24304 9.89305C1.65191 9.00884 1.34196 7.98929 1.34196 6.93966C1.34196 3.88101 3.98768 1.39078 7.24051 1.39078C8.8158 1.39078 10.2952 1.96823 11.4072 3.01785C12.5192 4.06748 13.203 5.45996 13.1998 6.94267C13.1998 10.0043 10.4869 12.4946 7.23731 12.4946ZM10.471 8.33816C10.2952 8.25395 9.42291 7.85094 9.25995 7.79681C9.09699 7.73966 8.97876 7.7126 8.86053 7.88102C8.74231 8.04944 8.4036 8.42237 8.29816 8.53666C8.19591 8.64794 8.09046 8.66297 7.91472 8.57876C6.87305 8.08854 6.18925 7.70357 5.50226 6.5938C5.32013 6.29906 5.68439 6.32011 6.02309 5.68252C6.08061 5.57124 6.05185 5.475 6.00712 5.39079C5.96238 5.30658 5.6077 4.48552 5.46072 4.15169C5.31693 3.82688 5.16995 3.87199 5.06131 3.86597C4.95905 3.85996 4.84083 3.85996 4.7226 3.85996C4.60438 3.85996 4.41266 3.90206 4.2497 4.06748C4.08673 4.2359 3.62981 4.63891 3.62981 5.45996C3.62981 6.28102 4.26567 7.075 4.35195 7.18628C4.44141 7.29756 5.60131 8.98177 7.3811 9.70658C8.50585 10.1637 8.94681 10.2028 9.50918 10.1246C9.85108 10.0765 10.5572 9.72162 10.7042 9.33064C10.8512 8.93966 10.8512 8.60583 10.8065 8.53666C10.7649 8.46147 10.6467 8.41936 10.471 8.33816Z" fill="#55595C"/>
</svg>
