<svg width="20" height="20" viewBox="0 0 20 20" fill="none" xmlns="http://www.w3.org/2000/svg">
<path d="M13.299 12.3406C13.246 12.2875 13.1395 12.181 13.0864 12.128C12.8204 11.9154 12.5543 11.6493 12.2887 11.4898C11.81 11.7558 11.3845 12.128 11.012 12.5005C10.7994 12.4475 10.6394 12.4475 10.4799 12.341C9.84169 12.1284 9.20316 11.7558 8.72452 11.2772C8.24587 10.7986 7.87335 10.16 7.66076 9.52186C7.6077 9.36231 7.55427 9.14932 7.50121 8.98977C7.87374 8.61724 8.24589 8.19203 8.51197 7.71305C8.29936 7.44701 8.08638 7.18097 7.87377 6.91531C7.82071 6.86225 7.71422 6.75576 7.66116 6.7027C7.44855 6.43666 7.18251 6.22405 6.91648 6.01108C6.33134 6.33018 5.85272 6.75576 5.42708 7.23442L5.37402 7.28748C5.53357 9.14942 6.49126 10.9044 7.82108 12.2342C9.1509 13.564 10.8533 14.5213 12.7678 14.6813L12.8209 14.6282C13.2995 14.2026 13.7251 13.6709 14.0442 13.1388C13.7778 12.8194 13.5652 12.6067 13.2992 12.3407L13.299 12.3406Z" fill="white"/>
<path d="M19.2023 6.11702C18.7236 4.94678 17.9789 3.82992 17.0747 2.92526C16.1705 2.02103 15.1067 1.27638 13.883 0.797739C12.6596 0.265659 11.3298 0 10 0C8.67018 0 7.34036 0.266039 6.11702 0.797739C4.94678 1.27639 3.82992 2.02108 2.92526 2.92526C2.02103 3.82949 1.27638 4.8933 0.797741 6.11702C0.265661 7.34036 0 8.67018 0 10C0 11.3298 0.266041 12.6596 0.797741 13.883C1.27639 15.0532 2.02108 16.1701 2.92526 17.0747C3.82949 17.979 4.8933 18.7236 6.11702 19.2023C7.34036 19.7343 8.67018 20 10 20C11.3298 20 12.6596 19.734 13.883 19.2023C15.0532 18.7236 16.1701 17.9789 17.0747 17.0747C17.979 16.1705 18.7236 15.1067 19.2023 13.883C19.7343 12.6596 20 11.3298 20 10C19.9469 8.67018 19.7343 7.39346 19.2023 6.11702ZM9.94662 18.7237C5.15945 18.7237 1.2761 14.8407 1.2761 10.0532C1.2761 5.26603 5.15907 1.38267 9.94662 1.38267C14.7338 1.38267 18.6171 5.26565 18.6171 10.0532C18.6171 14.8407 14.7342 18.7237 9.94662 18.7237Z" fill="white"/>
</svg>
