<svg width="14" height="12" viewBox="0 0 14 12" fill="none" xmlns="http://www.w3.org/2000/svg">
<path d="M11.5973 1.81825C10.4259 0.71299 8.86574 0.105095 7.20777 0.105095C3.78559 0.105095 1.00088 2.72615 1.00088 5.94721C1.00088 6.97616 1.28606 7.98142 1.82846 8.86826L0.947754 11.8946L4.23853 11.0814C5.1444 11.5472 6.1649 11.792 7.20498 11.792H7.20777C10.6272 11.792 13.4734 9.1709 13.4734 5.94984C13.4734 4.38931 12.7688 2.92352 11.5973 1.81825ZM7.20777 10.8077C6.27953 10.8077 5.37087 10.5735 4.57963 10.1314L4.3923 10.0262L2.44076 10.5077L2.9608 8.71563L2.83778 8.53142C2.32054 7.75774 2.04934 6.86563 2.04934 5.94721C2.04934 3.27089 4.36434 1.09194 7.21057 1.09194C8.58895 1.09194 9.88345 1.5972 10.8564 2.51562C11.8294 3.43405 12.4277 4.65247 12.4249 5.94984C12.4249 8.62879 10.0512 10.8077 7.20777 10.8077ZM10.0372 7.17089C9.88345 7.09721 9.12017 6.74458 8.97758 6.69721C8.83499 6.64721 8.73154 6.62352 8.62809 6.77089C8.52464 6.91826 8.22827 7.24458 8.13601 7.34458C8.04654 7.44195 7.95428 7.4551 7.8005 7.38142C6.88904 6.95247 6.29072 6.61563 5.6896 5.64458C5.53023 5.38668 5.84896 5.4051 6.14533 4.84721C6.19566 4.74984 6.17049 4.66563 6.13135 4.59194C6.09221 4.51826 5.78186 3.79984 5.65325 3.50773C5.52744 3.22352 5.39882 3.26299 5.30376 3.25773C5.2143 3.25247 5.11085 3.25247 5.0074 3.25247C4.90395 3.25247 4.7362 3.28931 4.59361 3.43405C4.45101 3.58142 4.0512 3.93405 4.0512 4.65247C4.0512 5.37089 4.60759 6.06563 4.68307 6.163C4.76136 6.26037 5.77627 7.73405 7.33359 8.36826C8.31774 8.76826 8.70358 8.80247 9.19566 8.73405C9.49482 8.69195 10.1127 8.38142 10.2413 8.03932C10.3699 7.69721 10.3699 7.4051 10.3308 7.34458C10.2944 7.27879 10.191 7.24195 10.0372 7.17089Z" fill="#55595C"/>
</svg>
