<svg width="20" height="20" viewBox="0 0 20 20" fill="none" xmlns="http://www.w3.org/2000/svg">
<path d="M19.7586 18.6138L15.5754 14.4311C16.8906 12.8533 17.6074 10.8847 17.6074 8.8054C17.6072 6.45324 16.6914 4.24201 15.0282 2.57917C13.3653 0.915984 11.1538 0 8.80197 0C6.4498 0 4.2381 0.915984 2.57514 2.57917C-0.858379 6.01267 -0.858379 11.5992 2.57514 15.0322C4.2381 16.6954 6.44957 17.6114 8.80197 17.6114C10.8809 17.6114 12.8497 16.8946 14.4275 15.5794L18.6104 19.7623C18.769 19.9209 18.9768 20 19.1848 20C19.3928 20 19.6003 19.9207 19.7591 19.7623C20.0756 19.4454 20.0756 18.9311 19.7587 18.6139L19.7586 18.6138ZM3.72347 13.8837C0.923426 11.0834 0.923426 6.52707 3.72347 3.72686C5.08014 2.37043 6.88329 1.62346 8.80203 1.62346C10.7198 1.62346 12.5235 2.37043 13.8802 3.72686C15.2366 5.08329 15.9838 6.88666 15.9838 8.80499C15.9838 10.7235 15.2364 12.5269 13.8802 13.8835C12.5235 15.24 10.7204 15.9869 8.80203 15.9869C6.88352 15.9869 5.07985 15.24 3.72347 13.8835V13.8837Z" fill="#BEC2C5"/>
</svg>
