<svg width="16" height="17" viewBox="0 0 16 17" fill="none" xmlns="http://www.w3.org/2000/svg">
<path d="M15.7956 10.4187L14.3601 9.58548C14.505 8.79968 14.505 7.99355 14.3601 7.20775L15.7956 6.37452C15.9608 6.27969 16.0349 6.08323 15.981 5.90033C15.6069 4.69453 14.9701 3.60389 14.1377 2.69615C14.0097 2.55728 13.8008 2.52341 13.639 2.61825L12.2035 3.45147C11.6004 2.92986 10.9062 2.5268 10.1548 2.2626V0.599546C10.1548 0.409869 10.0234 0.243902 9.83802 0.203257C8.60134 -0.0744841 7.33434 -0.0609358 6.15832 0.203257C5.97298 0.243902 5.84157 0.409869 5.84157 0.599546V2.26599C5.09349 2.53357 4.39934 2.93663 3.79279 3.45486L2.36068 2.62163C2.19556 2.5268 1.99001 2.55728 1.86196 2.69954C1.02965 3.60389 0.392775 4.69453 0.0187395 5.90372C-0.0385452 6.08662 0.0389577 6.28307 0.204073 6.37791L1.63956 7.21113C1.49466 7.99694 1.49466 8.80306 1.63956 9.58887L0.204073 10.4221C0.0389577 10.5169 -0.0351756 10.7134 0.0187395 10.8963C0.392775 12.1021 1.02965 13.1927 1.86196 14.1005C1.99001 14.2393 2.19893 14.2732 2.36068 14.1784L3.79616 13.3451C4.39934 13.8668 5.0935 14.2698 5.84494 14.534V16.2005C5.84494 16.3901 5.97635 16.5561 6.16169 16.5967C7.39836 16.8745 8.66537 16.8609 9.84139 16.5967C10.0267 16.5561 10.1581 16.3901 10.1581 16.2005V14.534C10.9062 14.2664 11.6004 13.8634 12.2069 13.3451L13.6424 14.1784C13.8075 14.2732 14.0131 14.2427 14.1411 14.1005C14.9734 13.1961 15.6103 12.1055 15.9843 10.8963C16.0349 10.71 15.9608 10.5135 15.7956 10.4187ZM7.99817 11.1063C6.51214 11.1063 5.30242 9.89032 5.30242 8.39661C5.30242 6.90291 6.51214 5.68695 7.99817 5.68695C9.4842 5.68695 10.6939 6.90291 10.6939 8.39661C10.6939 9.89032 9.4842 11.1063 7.99817 11.1063Z" fill="#F2F2F2" fill-opacity="0.8"/>
</svg>
