<svg width="21" height="22" viewBox="0 0 21 22" fill="none" xmlns="http://www.w3.org/2000/svg">
<path d="M7.84959 0.336477C5.98883 0.821213 4.62844 1.63432 3.11169 3.15107C0.969471 5.26202 0 7.57624 0 10.5159C0 13.2836 0.906925 15.6604 2.72077 17.6462C6.45793 21.7274 12.5406 22.259 16.9814 18.8972C18.6389 17.6306 19.8898 15.8324 20.5934 13.7058C20.9375 12.6425 21 12.189 21 10.5785C21 8.9679 20.9375 8.51444 20.5934 7.45114C18.8109 2.05651 13.2286 -1.07082 7.84959 0.336477ZM12.7282 1.43104C17.4192 2.63506 20.4214 6.95077 19.8429 11.6887C19.2487 16.4109 15.3239 19.8979 10.5547 19.9135C8.92852 19.9292 7.8965 19.6946 6.33284 18.9441C4.76917 18.1779 3.67461 17.224 2.67386 15.7229C1.72003 14.3 1.25093 12.8927 1.14147 11.0945C1.03202 9.32754 1.26657 8.09225 2.06404 6.43476C2.56441 5.37147 2.93969 4.85546 3.90916 3.91726C6.33284 1.50922 9.52271 0.602299 12.7282 1.43104Z" fill="#BEC2C5"/>
<path d="M10.1168 3.26052C10.0542 3.30743 10.0073 5.05873 10.0073 7.13841V10.9068L12.0088 12.8927C13.119 13.9873 14.1041 14.8785 14.1979 14.8785C14.4012 14.8785 14.8547 14.4407 14.8547 14.2218C14.8547 14.1436 14.0103 13.2054 12.9783 12.1578L11.1019 10.2345V6.88822C11.1019 4.48018 11.055 3.47943 10.9142 3.3387C10.711 3.13543 10.2731 3.08852 10.1168 3.26052Z" fill="#BEC2C5"/>
</svg>
