<svg width="12" height="13" viewBox="0 0 12 13" fill="none" xmlns="http://www.w3.org/2000/svg">
<path d="M10.6007 1.32485C10.2913 1.03864 9.03904 0.126189 6.24707 0.113957C6.24707 0.113957 2.95567 -0.0841887 1.3526 1.39334C0.460929 2.28867 0.14665 3.6023 0.112542 5.22906C0.0784344 6.85581 0.0370181 9.90383 2.96298 10.7307H2.96542L2.96298 11.9929C2.96298 11.9929 2.94349 12.5042 3.2797 12.6069C3.68412 12.7341 3.92287 12.3452 4.31024 11.9269C4.52219 11.6969 4.81455 11.3593 5.03625 11.1025C7.03886 11.2713 8.57615 10.8848 8.75156 10.8285C9.15598 10.6964 11.4436 10.4029 11.814 7.35484C12.1989 4.20897 11.6288 2.22262 10.6007 1.32485ZM10.9393 7.1249C10.6251 9.66899 8.77105 9.83045 8.42997 9.94053C8.2838 9.98701 6.93167 10.3246 5.23359 10.2145C5.23359 10.2145 3.96672 11.7483 3.57205 12.147C3.44293 12.2767 3.30162 12.2645 3.30406 12.0076C3.30406 11.8388 3.3138 9.91117 3.3138 9.91117C3.31137 9.91117 3.31137 9.91117 3.3138 9.91117C0.833678 9.22133 0.979855 6.62586 1.00665 5.2682C1.03345 3.91053 1.28926 2.79749 2.04451 2.04894C3.40151 0.813584 6.19591 0.997052 6.19591 0.997052C8.55666 1.00684 9.68709 1.72114 9.95021 1.96087C10.82 2.70942 11.2634 4.50008 10.9393 7.1249ZM7.55292 5.14833C7.56266 5.35871 7.24838 5.37339 7.23864 5.16301C7.21184 4.62483 6.9609 4.36309 6.44441 4.33373C6.23489 4.3215 6.25438 4.00593 6.46147 4.01817C7.14119 4.05486 7.51881 4.44626 7.55292 5.14833ZM8.04748 5.42476C8.07184 4.38755 7.42623 3.5754 6.20079 3.48488C5.9937 3.47021 6.01563 3.15464 6.22271 3.16932C7.63575 3.27206 8.38856 4.24811 8.36176 5.4321C8.35932 5.64247 8.04261 5.63269 8.04748 5.42476ZM9.19253 5.75255C9.19496 5.96293 8.87825 5.96538 8.87825 5.755C8.86363 3.76131 7.54073 2.67518 5.93523 2.66295C5.72815 2.6605 5.72815 2.34738 5.93523 2.34738C7.73076 2.35961 9.17547 3.60475 9.19253 5.75255ZM8.91723 8.15232V8.15721C8.65411 8.622 8.16199 9.13571 7.65524 8.97181L7.65037 8.96447C7.13631 8.82015 5.92549 8.19391 5.1605 7.58235C4.76582 7.26923 4.40525 6.89984 4.12752 6.54514C3.87658 6.22957 3.62321 5.8553 3.37715 5.40519C2.85822 4.46338 2.74372 4.04263 2.74372 4.04263C2.58049 3.53381 3.08967 3.03967 3.55499 2.77547H3.55987C3.784 2.65805 3.9984 2.69719 4.14214 2.87088C4.14214 2.87088 4.44423 3.23292 4.57336 3.4115C4.69517 3.57784 4.8584 3.84448 4.94367 3.9937C5.09228 4.26034 4.9997 4.53188 4.85353 4.6444L4.56117 4.87924C4.41256 4.99911 4.43205 5.22172 4.43205 5.22172C4.43205 5.22172 4.86571 6.86804 6.48583 7.2839C6.48583 7.2839 6.70753 7.30347 6.82691 7.15425L7.06079 6.8607C7.17286 6.71393 7.44328 6.62097 7.70884 6.77019C8.06697 6.97323 8.52255 7.2888 8.82465 7.57501C8.99519 7.71444 9.03417 7.92727 8.91723 8.15232Z" fill="#55595C"/>
</svg>
