<svg width="70" height="70" viewBox="0 0 70 70" fill="none" xmlns="http://www.w3.org/2000/svg">
<path d="M69.4003 1.19681H0.598285C0.267621 1.19681 0 0.929192 0 0.598529C0 0.267865 0.267621 0.000244141 0.598285 0.000244141H69.4003C69.731 0.000244141 69.9986 0.267865 69.9986 0.598529C69.9986 0.929192 69.731 1.19681 69.4003 1.19681Z" fill="#7099B9"/>
<path d="M61.9229 49.0593H8.07729C7.74663 49.0593 7.479 48.7917 7.479 48.4611V0.598285C7.479 0.267621 7.74663 0 8.07729 0H61.9229C62.2536 0 62.5212 0.267621 62.5212 0.598285V48.4611C62.5212 48.7917 62.2536 49.0593 61.9229 49.0593ZM8.67489 47.8628H61.3239V1.19657H8.67489V47.8628Z" fill="#7099B9"/>
<path d="M55.9386 43.0765H48.46C48.1293 43.0765 47.8617 42.8089 47.8617 42.4782C47.8617 42.1476 48.1293 41.8799 48.46 41.8799H55.9386C56.2693 41.8799 56.5369 42.1476 56.5369 42.4782C56.5369 42.8089 56.2693 43.0765 55.9386 43.0765Z" fill="#7099B9"/>
<path d="M55.9386 38.5897H51.4516C51.1209 38.5897 50.8533 38.3221 50.8533 37.9914C50.8533 37.6607 51.1209 37.3931 51.4516 37.3931H55.9386C56.2693 37.3931 56.5369 37.6607 56.5369 37.9914C56.5369 38.3221 56.2693 38.5897 55.9386 38.5897Z" fill="#7099B9"/>
<path d="M21.5375 11.6676H14.0589C13.7282 11.6676 13.4606 11.4 13.4606 11.0693C13.4606 10.7386 13.7282 10.471 14.0589 10.471H21.5375C21.8681 10.471 22.1358 10.7386 22.1358 11.0693C22.1358 11.4 21.8681 11.6676 21.5375 11.6676Z" fill="#7099B9"/>
<path d="M18.5469 7.17966H14.0598C13.7292 7.17966 13.4615 6.91204 13.4615 6.58138C13.4615 6.25071 13.7292 5.98309 14.0598 5.98309H18.5469C18.8776 5.98309 19.1452 6.25071 19.1452 6.58138C19.1452 6.91204 18.8776 7.17966 18.5469 7.17966Z" fill="#7099B9"/>
<path d="M33.5033 61.0251C33.1727 61.0251 32.905 60.7574 32.905 60.4268V48.4611C32.905 48.1304 33.1727 47.8628 33.5033 47.8628C33.834 47.8628 34.1016 48.1304 34.1016 48.4611V60.4268C34.1016 60.7574 33.834 61.0251 33.5033 61.0251Z" fill="#7099B9"/>
<path d="M33.5032 70C30.6993 70 28.4177 67.7185 28.4177 64.9145C28.4177 62.1106 30.6993 59.829 33.5032 59.829C36.3072 59.829 38.5887 62.1106 38.5887 64.9145C38.5887 67.7185 36.3072 70 33.5032 70ZM33.5032 61.0257C31.359 61.0257 29.6143 62.7704 29.6143 64.9147C29.6143 67.0589 31.359 68.8036 33.5032 68.8036C35.6475 68.8036 37.3921 67.0589 37.3921 64.9147C37.3921 62.7704 35.6475 61.0257 33.5032 61.0257Z" fill="#7099B9"/>
<path d="M23.0335 34.1029H17.0507C16.72 34.1029 16.4524 33.8353 16.4524 33.5046V16.6118C16.4524 16.2811 16.72 16.0135 17.0507 16.0135H23.0335C23.3642 16.0135 23.6318 16.2811 23.6318 16.6118V33.5046C23.6318 33.8353 23.3642 34.1029 23.0335 34.1029ZM17.649 32.9063H22.4352V17.2101H17.649V32.9063Z" fill="#7099B9"/>
<path d="M36.4953 34.1029H30.5125C30.1818 34.1029 29.9142 33.8353 29.9142 33.5046V13.7961C29.9142 13.4654 30.1818 13.1978 30.5125 13.1978H36.4953C36.826 13.1978 37.0936 13.4654 37.0936 13.7961V33.5046C37.0936 33.8353 36.826 34.1029 36.4953 34.1029ZM31.1108 32.9063H35.897V14.3944H31.1108V32.9063Z" fill="#7099B9"/>
<path d="M49.9572 34.1029H43.9744C43.6437 34.1029 43.3761 33.8353 43.3761 33.5047V9.57326C43.3761 9.2426 43.6437 8.97498 43.9744 8.97498H49.9572C50.2879 8.97498 50.5555 9.2426 50.5555 9.57326V33.5047C50.5555 33.8353 50.2879 34.1029 49.9572 34.1029ZM44.5727 32.9064H49.3589V10.1715H44.5727V32.9064Z" fill="#7099B9"/>
</svg>
