<svg width="57" height="70" viewBox="0 0 57 70" fill="none" xmlns="http://www.w3.org/2000/svg">
<path d="M28.0315 70C17.1199 70 8.30637 61.1166 8.30637 50.2748C8.30637 39.4334 17.12 30.4797 28.0315 30.4797C38.9431 30.4797 47.7567 39.3632 47.7567 50.2049C47.7567 61.0464 38.9431 70 28.0315 70ZM28.0315 32.0885C18.0293 32.0885 9.91516 40.2025 9.91516 50.2049C9.91516 60.2076 18.0292 68.3912 28.0315 68.3912C38.0339 68.3912 46.1479 60.2772 46.1479 50.2748C46.1479 40.2721 38.0339 32.0885 28.0315 32.0885Z" fill="#7099B9"/>
<path d="M34.0471 32.9279C33.6275 32.9279 33.2079 32.578 33.2079 32.0887V28.5215C33.2079 27.5422 32.4385 26.7728 31.4592 26.7728H24.5343C23.5551 26.7728 22.7856 27.5422 22.7856 28.5215V32.0887C22.7856 32.5083 22.4358 32.9279 21.9464 32.9279C21.5268 32.9279 21.1072 32.578 21.1072 32.0887V28.5215C21.1072 26.6328 22.646 25.1641 24.4645 25.1641H31.3894C33.2782 25.1641 34.7468 26.703 34.7468 28.5215V32.0887C34.8863 32.5083 34.4667 32.9279 34.0471 32.9279Z" fill="#7099B9"/>
<path d="M35.4461 25.2337C35.2363 25.2337 35.0265 25.1639 34.8864 25.0239C34.5366 24.674 34.5366 24.1846 34.8864 23.9046L54.6816 4.03954C55.0314 3.6897 55.5208 3.6897 55.8008 4.03954C56.1507 4.38938 56.1507 4.87876 55.8008 5.15881L36.0057 25.0239C35.7959 25.1634 35.6559 25.2337 35.4461 25.2337H35.4461Z" fill="#7099B9"/>
<path d="M31.6689 21.1068C31.4591 21.1068 31.2493 21.037 31.1092 20.897C30.7594 20.5471 30.7594 20.0577 31.1092 19.7777L50.4847 0.262378C50.8345 -0.0874592 51.3239 -0.0874592 51.6039 0.262378C51.9538 0.612214 51.9538 1.1016 51.6039 1.38165L32.2285 20.827C32.0885 20.9671 31.8787 21.1066 31.6689 21.1066L31.6689 21.1068Z" fill="#7099B9"/>
<path d="M20.6171 25.2337C20.4073 25.2337 20.1975 25.1639 20.0575 25.0239L0.262378 5.15881C-0.0874592 4.80897 -0.0874592 4.31959 0.262378 4.03954C0.612215 3.6897 1.1016 3.6897 1.38165 4.03954L21.2467 23.9046C21.5965 24.2544 21.5965 24.7438 21.2467 25.0239C21.0369 25.1639 20.8271 25.2342 20.6173 25.2342L20.6171 25.2337Z" fill="#7099B9"/>
<path d="M24.3942 21.1068C24.1844 21.1068 23.9746 21.037 23.8346 20.897L4.38921 1.45159C4.03937 1.10176 4.03937 0.612376 4.38921 0.332324C4.73905 -0.0175129 5.22843 -0.0175129 5.50848 0.332324L24.8839 19.7078C25.2337 20.0576 25.2337 20.547 24.8839 20.827C24.8137 20.9671 24.6038 21.1066 24.394 21.1066L24.3942 21.1068Z" fill="#7099B9"/>
<path d="M28.0316 59.5778C27.612 59.5778 27.1924 59.228 27.1924 58.7386V41.7414C27.1924 41.3218 27.5422 40.9022 28.0316 40.9022C28.5215 40.9022 28.8708 41.252 28.8708 41.7414V58.7386C28.8708 59.2285 28.4512 59.5778 28.0316 59.5778Z" fill="#7099B9"/>
<path d="M32.4382 42.5107H23.6246C23.2049 42.5107 22.7853 42.1608 22.7853 41.6714C22.7853 41.2518 23.1352 40.8322 23.6246 40.8322H32.4378C32.8574 40.8322 33.277 41.1821 33.277 41.6714C33.2775 42.1608 32.9277 42.5107 32.4383 42.5107H32.4382Z" fill="#7099B9"/>
<path d="M32.4382 59.5778H23.6246C23.2049 59.5778 22.7853 59.228 22.7853 58.7386C22.7853 58.2488 23.1352 57.8994 23.6246 57.8994H32.4378C32.8574 57.8994 33.277 58.2492 33.277 58.7386C33.2775 59.2285 32.9277 59.5778 32.4383 59.5778H32.4382Z" fill="#7099B9"/>
</svg>
