<svg width="70" height="70" viewBox="0 0 70 70" fill="none" xmlns="http://www.w3.org/2000/svg">
<path d="M55.6512 70C55.0213 70 41.6512 69.2299 41.6512 42.77C41.6512 42.4199 41.931 42.0697 42.2811 41.9999L55.4411 38.9198H55.7912L68.9512 41.9999C69.3013 42.0697 69.5811 42.4199 69.5811 42.77C69.6509 69.23 56.2811 70 55.6511 70H55.6512ZM43.2616 43.4C43.4715 67.2 54.9516 68.39 55.6517 68.39C56.2816 68.3201 67.8318 67.0598 68.0418 43.4L55.6517 40.5298L43.2616 43.4Z" fill="#7099B9"/>
<path d="M64.4703 38.1501H64.2603L55.5802 36.1203L46.9001 38.1501C46.4802 38.2199 46.0602 38.0099 45.9201 37.5202C45.8503 37.1002 46.0602 36.6803 46.55 36.5402L55.3699 34.5104H55.72L64.5399 36.5402C64.9598 36.61 65.2401 37.1002 65.1697 37.5202C65.1702 37.8703 64.8201 38.1501 64.4705 38.1501H64.4703Z" fill="#7099B9"/>
<path d="M39.6208 50.89H4.76079C3.08066 50.89 1.75104 49.4901 1.75104 47.8803L1.75055 24.5703C1.75055 24.1503 2.10065 23.8002 2.52057 23.8002C2.9405 23.8002 3.2906 24.1503 3.2906 24.5703V47.8803C3.2906 48.6503 3.92049 49.3505 4.76085 49.3505H39.6209C40.0408 49.3505 40.3909 49.7006 40.3909 50.1205C40.4607 50.5405 40.1106 50.8906 39.6209 50.8906L39.6208 50.89Z" fill="#7099B9"/>
<path d="M55.6506 32.83C55.2307 32.83 54.8806 32.4799 54.8806 32.06V24.5698C54.8806 24.1498 55.2307 23.7997 55.6506 23.7997C56.0706 23.7997 56.4207 24.1498 56.4207 24.5698V32.06C56.4207 32.4799 56.0706 32.83 55.6506 32.83Z" fill="#7099B9"/>
<path d="M32.4108 27.51C31.9909 27.51 31.6408 27.1599 31.6408 26.7399C31.6408 26.32 31.9909 25.9001 32.4108 25.9001C40.3908 25.6901 48.5108 24.9201 56.4908 23.5901C56.5606 23.5901 56.6309 23.5203 56.6309 23.3801L56.6305 10.3601C56.6305 9.5901 56.0006 8.88988 55.1602 8.88988L3.01019 8.89037C2.24016 8.89037 1.53994 9.52025 1.53994 10.3606V23.4506C1.53994 23.5204 1.60976 23.6606 1.68008 23.6606C9.5902 24.9907 17.7101 25.7607 25.7601 25.9008C26.18 25.9008 26.5301 26.2509 26.5301 26.7407C26.5301 27.1606 26.18 27.5805 25.6903 27.5107C17.64 27.3003 9.45025 26.5302 1.47025 25.2007C0.6304 25.0606 0 24.2906 0 23.4507V10.3607C0 8.68058 1.33013 7.35095 3.00975 7.35095H55.2298C56.9099 7.35095 58.2395 8.75083 58.2395 10.3607V23.4507C58.2395 24.3609 57.6096 25.0606 56.7693 25.2007C48.7199 26.5308 40.5305 27.3008 32.4093 27.5107L32.4108 27.51Z" fill="#7099B9"/>
<path d="M31.711 30.8H26.5309C25.6911 30.8 24.9909 30.0998 24.9909 29.26V24.0799C24.9909 23.2401 25.6911 22.5399 26.5309 22.5399H31.711C32.5509 22.5399 33.251 23.2401 33.251 24.0799V29.26C33.1812 30.1702 32.481 30.8 31.711 30.8ZM26.6012 29.1902H31.5714V24.2199H26.6012V29.1902Z" fill="#7099B9"/>
<path d="M30.1705 27.51H28.0704C27.6505 27.51 27.3004 27.1599 27.3004 26.7399C27.3004 26.32 27.6505 25.9699 28.0704 25.9699H30.1705C30.5904 25.9699 30.9405 26.32 30.9405 26.7399C30.9405 27.1603 30.5904 27.51 30.1705 27.51Z" fill="#7099B9"/>
<path d="M32.4105 33.6H25.8303C25.4104 33.6 25.0603 33.2499 25.0603 32.83C25.0603 32.4101 25.4104 32.06 25.8303 32.06H32.4105C32.8304 32.06 33.1805 32.4101 33.1805 32.83C33.1805 33.2499 32.8304 33.6 32.4105 33.6Z" fill="#7099B9"/>
<path d="M41.4405 8.89014C41.0205 8.89014 40.6704 8.54004 40.6704 8.12012V3.43011C40.6704 2.45014 39.8306 1.61024 38.8506 1.61024L19.3906 1.60975C18.4106 1.60975 17.5707 2.4496 17.5707 3.42963V8.11963C17.5707 8.53955 17.2206 8.88965 16.8007 8.88965C16.3807 8.88965 16.0306 8.53955 16.0306 8.11963V3.43013C15.9603 1.54 17.5004 0 19.3905 0H38.8505C40.7406 0 42.2806 1.54 42.2806 3.43013V8.12013C42.2806 8.54005 41.8602 8.89015 41.4403 8.89015L41.4405 8.89014Z" fill="#7099B9"/>
<path d="M34.8609 5.03999H23.3111C22.8912 5.03999 22.5411 4.68989 22.5411 4.26996C22.5411 3.85004 22.8912 3.49994 23.3111 3.49994H34.8609C35.2808 3.49994 35.6309 3.85004 35.6309 4.26996C35.6309 4.68989 35.2813 5.03999 34.8609 5.03999Z" fill="#7099B9"/>
<path d="M55.6504 58.17C55.4405 58.17 55.2305 58.1001 55.0904 57.96L50.9605 54.3199C50.6104 54.0401 50.6104 53.5498 50.8907 53.1998C51.1705 52.8497 51.6607 52.8497 52.0108 53.1299L55.5108 56.2101L60.9009 49.6299C61.1807 49.2798 61.6709 49.21 62.021 49.4898C62.3711 49.7696 62.441 50.2598 62.1612 50.6099L56.2813 57.8199C56.1407 58.0299 55.9307 58.1002 55.6504 58.17L55.6504 58.17Z" fill="#7099B9"/>
</svg>
