<svg width="72" height="70" viewBox="0 0 72 70" fill="none" xmlns="http://www.w3.org/2000/svg">
<path d="M30.3666 41.3442C26.9452 41.3442 23.7376 39.776 21.6701 36.996C21.3852 36.6394 21.4563 36.1407 21.8128 35.8553C22.1693 35.5704 22.668 35.6415 22.9534 35.998C24.7355 38.3504 27.4444 39.7049 30.4383 39.7049C35.5707 39.7049 39.7762 35.4993 39.7762 30.3669C39.7762 25.2345 35.5707 21.029 30.4383 21.029C30.0107 21.029 29.6541 20.6725 29.6541 20.2448C29.6541 19.8172 30.0107 19.4607 30.4383 19.4607C36.4976 19.4607 41.3446 24.3793 41.3446 30.367C41.3446 36.3546 36.4259 41.3443 30.3667 41.3443L30.3666 41.3442Z" fill="#7099B9"/>
<path d="M14.6843 36.7108C14.3278 36.7108 14.0429 36.497 13.9713 36.2116C13.1871 34.002 12.8306 31.7207 12.9733 29.3682C13.4009 21.8833 18.5334 15.5393 25.733 13.5434C26.1606 13.4006 26.5882 13.6861 26.7309 14.1137C26.8736 14.5413 26.5882 14.9689 26.1606 15.1116C19.6026 16.8937 14.8979 22.7392 14.5413 29.5108C14.3986 31.6494 14.7551 33.7164 15.3966 35.7123C15.5393 36.1399 15.3255 36.5675 14.8973 36.7102C14.8272 36.7107 14.7561 36.7107 14.6845 36.7107L14.6843 36.7108Z" fill="#7099B9"/>
<path d="M30.3664 31.9349C29.5112 31.9349 28.7982 31.2218 28.7982 30.3666C28.7982 29.5114 29.5113 28.7984 30.3664 28.7984C31.2216 28.7984 31.9347 29.5114 31.9347 30.3666C31.9347 31.2218 31.2221 31.9349 30.3664 31.9349ZM30.3664 30.3666H31.1506H30.3664Z" fill="#7099B9"/>
<path d="M15.2545 42.556C15.0407 42.556 14.7553 42.4133 14.6131 42.2711C14.3282 41.9146 14.3993 41.4159 14.7558 41.1305L29.5827 30.0105V11.263C29.5827 10.8354 29.9392 10.4789 30.3668 10.4789C30.7944 10.4789 31.1509 10.8354 31.1509 11.263V30.3669C31.1509 30.5807 31.0082 30.8661 30.866 31.0083L15.754 42.4138C15.6113 42.5566 15.4686 42.5566 15.2548 42.5566L15.2545 42.556Z" fill="#7099B9"/>
<path d="M30.3666 60.7332C13.6151 60.7332 0 47.1182 0 30.3666C0 13.6151 13.6151 6.10352e-05 30.3666 6.10352e-05C47.1181 6.10352e-05 60.7332 13.6151 60.7332 30.3666C60.7332 32.7901 60.4482 35.1426 59.8779 37.4949C59.8068 37.9226 59.3787 38.208 58.9511 38.0653C58.5235 37.9942 58.238 37.566 58.3808 37.1384C58.88 34.9288 59.1649 32.6475 59.1649 30.3667C59.1654 14.4706 46.2627 1.56833 30.3665 1.56833C14.4704 1.56833 1.56819 14.4706 1.56819 30.3667C1.56819 46.2628 14.4704 59.165 30.3665 59.165C33.2176 59.165 35.9976 58.7374 38.6355 57.9533C39.0631 57.8106 39.4907 58.096 39.6334 58.4525C39.7761 58.8801 39.4907 59.3077 39.1342 59.4504C36.2831 60.3057 33.3604 60.7333 30.3665 60.7333L30.3666 60.7332Z" fill="#7099B9"/>
<path d="M4.77586 31.1507H0.784139C0.356517 31.1507 0 30.7942 0 30.3666C0 29.939 0.356517 29.5825 0.784139 29.5825H4.77586C5.20348 29.5825 5.56 29.939 5.56 30.3666C5.56 30.7942 5.20348 31.1507 4.77586 31.1507Z" fill="#7099B9"/>
<path d="M59.949 31.1507H55.9572C55.5296 31.1507 55.1731 30.7942 55.1731 30.3666C55.1731 29.939 55.5296 29.5825 55.9572 29.5825H59.949C60.3766 29.5825 60.7331 29.939 60.7331 30.3666C60.7331 30.7942 60.3766 31.1507 59.949 31.1507Z" fill="#7099B9"/>
<path d="M30.3667 5.56C29.939 5.56 29.5825 5.20349 29.5825 4.77586V0.784139C29.5825 0.356517 29.939 0 30.3667 0C30.7943 0 31.1508 0.356517 31.1508 0.784139V4.77586C31.1508 5.20398 30.7948 5.56 30.3667 5.56Z" fill="#7099B9"/>
<path d="M30.3667 60.7332C29.939 60.7332 29.5825 60.3767 29.5825 59.9491V55.9574C29.5825 55.5297 29.939 55.1732 30.3667 55.1732C30.7943 55.1732 31.1508 55.5297 31.1508 55.9574V59.9491C31.1508 60.3767 30.7948 60.7332 30.3667 60.7332Z" fill="#7099B9"/>
<path d="M54.1751 70C44.7655 70 37.0671 62.3014 37.0671 52.892C37.0671 43.4824 44.7657 35.7841 54.1751 35.7841C63.5847 35.7841 71.283 43.4827 71.283 52.892C71.283 62.3014 63.5844 70 54.1751 70ZM54.1751 37.3523C45.6212 37.3523 38.6354 44.338 38.6354 52.892C38.6349 61.4464 45.6205 68.4318 54.1751 68.4318C62.7289 68.4318 69.7148 61.4461 69.7148 52.892C69.7148 44.3377 62.7292 37.3523 54.1751 37.3523Z" fill="#7099B9"/>
</svg>
